#N canvas 74 59 592 418 10;
#X declare -lib mrpeach;
#X obj -142 407 dac~;
#X obj 68 26 import mrpeach;
#X obj -166 17 udpreceive 12000;
#X obj -166 49 unpackOSC;
#X obj -166 83 routeOSC /note;
#X obj -166 121 unpack f f f;
#X floatatom -166 165 5 0 0 0 - - -;
#X floatatom -118 166 5 0 0 0 - - -;
#X floatatom -71 169 5 0 0 0 - - -;
#X obj 65 102 bng 15 250 50 0 empty empty empty 17 7 0 10 -262144 -1
-1;
#X obj 66 130 f;
#X obj 109 131 + 1;
#X floatatom 67 159 20 0 0 0 - - -;
#N canvas 452 124 779 569 sound 0;
#X obj 140 13 inlet;
#X obj 20 144 readsf~;
#X obj 30 457 outlet~;
#X msg 20 123 open wav/72_C5.wav \, start;
#X msg 35 167 open wav/74_D5.wav \, start;
#X msg 49 205 open wav/76_E5.wav \, start;
#X msg 70 246 open wav/77_F5.wav \, start;
#X msg 88 283 open wav/79_G5.wav \, start;
#X msg 102 321 open wav/81_A5.wav \, start;
#X msg 116 361 open wav/83_B5.wav \, start;
#X msg 303 246 open wav/89_F6.wav \, start;
#X msg 250 123 open wav/84_C6.wav \, start;
#X msg 266 165 open wav/86_D6.wav \, start;
#X msg 284 206 open wav/88_E6.wav \, start;
#X msg 323 289 open wav/91_G6.wav \, start;
#X msg 352 330 open wav/93_A6.wav \, start;
#X msg 372 369 open wav/95_B6.wav \, start;
#X msg 464 122 open wav/96_C7.wav \, start;
#X obj 140 91 route -1 0 1 2 3 4 5 6 7 8 9 10 11 12 13;
#X obj 37 187 readsf~;
#X obj 51 225 readsf~;
#X obj 70 266 readsf~;
#X obj 88 304 readsf~;
#X obj 101 340 readsf~;
#X obj 116 380 readsf~;
#X obj 324 310 readsf~;
#X obj 304 266 readsf~;
#X obj 284 226 readsf~;
#X obj 267 185 readsf~;
#X obj 250 143 readsf~;
#X obj 352 350 readsf~;
#X obj 373 388 readsf~;
#X obj 464 144 readsf~;
#X obj 140 59 expr if($f1>=13 \, $f1-13 \, $f1+1);
#X connect 0 0 33 0;
#X connect 1 0 2 0;
#X connect 3 0 1 0;
#X connect 4 0 19 0;
#X connect 5 0 20 0;
#X connect 6 0 21 0;
#X connect 7 0 22 0;
#X connect 8 0 23 0;
#X connect 9 0 24 0;
#X connect 10 0 26 0;
#X connect 11 0 29 0;
#X connect 12 0 28 0;
#X connect 13 0 27 0;
#X connect 14 0 25 0;
#X connect 15 0 30 0;
#X connect 16 0 31 0;
#X connect 17 0 32 0;
#X connect 18 0 3 0;
#X connect 18 1 4 0;
#X connect 18 2 5 0;
#X connect 18 3 6 0;
#X connect 18 4 7 0;
#X connect 18 5 8 0;
#X connect 18 6 9 0;
#X connect 18 7 11 0;
#X connect 18 8 12 0;
#X connect 18 9 13 0;
#X connect 18 10 10 0;
#X connect 18 11 14 0;
#X connect 18 12 15 0;
#X connect 18 13 16 0;
#X connect 18 14 17 0;
#X connect 19 0 2 0;
#X connect 20 0 2 0;
#X connect 21 0 2 0;
#X connect 22 0 2 0;
#X connect 23 0 2 0;
#X connect 24 0 2 0;
#X connect 25 0 2 0;
#X connect 26 0 2 0;
#X connect 27 0 2 0;
#X connect 28 0 2 0;
#X connect 29 0 2 0;
#X connect 30 0 2 0;
#X connect 31 0 2 0;
#X connect 32 0 2 0;
#X connect 33 0 18 0;
#X restore -132 320 pd sound;
#X obj -149 210 pipe 250;
#X obj -91 210 pipe 500;
#X obj -31 211 pipe 750;
#X obj -34 243 pipe 1250;
#X obj 30 243 pipe 1500;
#X obj 92 243 pipe 1750;
#X obj -165 244 pipe 1000;
#X msg 93 101 0;
#X obj -198 211 pipe 25;
#X obj -101 243 pipe 1025;
#X obj 209 28 loadbang;
#X obj 208 75 dsp;
#X msg 208 50 1;
#X obj -132 350 *~ 0.2;
#X connect 2 0 3 0;
#X connect 3 0 4 0;
#X connect 4 0 5 0;
#X connect 5 0 6 0;
#X connect 5 0 22 0;
#X connect 5 0 23 0;
#X connect 5 1 7 0;
#X connect 5 1 14 0;
#X connect 5 1 16 0;
#X connect 5 1 17 0;
#X connect 5 1 19 0;
#X connect 5 2 8 0;
#X connect 5 2 9 0;
#X connect 5 2 13 0;
#X connect 5 2 15 0;
#X connect 5 2 18 0;
#X connect 5 2 20 0;
#X connect 9 0 10 0;
#X connect 10 0 11 0;
#X connect 10 0 12 0;
#X connect 11 0 10 1;
#X connect 13 0 27 0;
#X connect 14 0 13 0;
#X connect 15 0 13 0;
#X connect 16 0 13 0;
#X connect 17 0 13 0;
#X connect 18 0 13 0;
#X connect 19 0 13 0;
#X connect 20 0 13 0;
#X connect 21 0 10 1;
#X connect 22 0 13 0;
#X connect 23 0 13 0;
#X connect 24 0 26 0;
#X connect 26 0 25 0;
#X connect 27 0 0 0;
#X connect 27 0 0 1;
